<svg width="182" height="211" viewBox="0 0 182 211" fill="none" xmlns="http://www.w3.org/2000/svg">
<circle cx="91" cy="91" r="91" fill="#C4C4C4"/>
<g clip-path="url(#clip0)">
<path d="M62.4 113.2C62.4 113.2 57.4 97.5004 70.1 91.3004C82.9 85.1004 116.1 91.0004 116.1 91.0004C116.1 91.0004 120 113 115.9 115.9C111.8 118.8 62.4 113.2 62.4 113.2Z" fill="#373C44"/>
<path d="M69.99 121.849C70.9829 117.657 68.3896 113.454 64.1977 112.461C60.0058 111.468 55.8026 114.062 54.8096 118.254C53.8167 122.446 56.41 126.649 60.6019 127.642C64.7938 128.635 68.997 126.041 69.99 121.849Z" fill="#CE8282"/>
<path d="M123.382 127.328C127.365 125.687 129.264 121.128 127.623 117.145C125.982 113.162 121.423 111.263 117.44 112.904C113.457 114.545 111.559 119.104 113.2 123.087C114.84 127.07 119.399 128.969 123.382 127.328Z" fill="#CE8282"/>
<path d="M101.5 148.502L100.2 131.102L86.6004 133.002L84.4004 158.402C88.9004 157.802 96.2004 155.802 101.5 148.502Z" fill="#D19582"/>
<path d="M112.301 128.402C111.501 130.002 111.201 131.802 110.301 133.402C108.001 137.702 102.501 139.502 98.0008 137.402C96.7008 136.802 95.5008 135.902 94.1008 135.602C92.8008 135.402 91.4008 135.702 90.4008 136.602C89.6008 137.402 89.0008 138.402 88.0008 139.002C87.3008 139.402 86.5008 139.502 85.7008 139.502C81.6008 139.502 78.1008 137.602 75.8008 134.302C73.7008 131.302 72.3008 127.802 69.7008 125.102C68.3008 123.702 66.6008 122.602 64.8008 121.602C64.8008 121.802 64.8008 122.002 64.9008 122.202C65.8008 130.402 69.7008 137.602 77.2008 141.502C84.7008 145.502 94.8008 146.902 102.801 143.602C109.001 141.102 113.701 136.502 116.201 130.502C117.101 128.202 117.701 125.702 118.101 123.102C115.601 123.802 113.401 126.002 112.301 128.402Z" fill="#373C44"/>
<path d="M118.6 107.2C117.2 79.4004 94.6 79.8004 94.6 79.8004C94.6 79.8004 64.4 77.5004 64.6 112.6C64.4 116.5 64.5 117.9 64.9 121.5C66.6 122.5 68.4 123.6 69.8 125C73.5 128.8 74.8 134.8 79.3 137.6C81.1 138.7 83.3 139.2 85.4 139.3C86.4 139.3 87.6 139.2 88.4 138.6C89 138.1 89.4 137.4 90 136.8C91.1 135.7 92.8 135.2 94.3 135.5C95.6 135.8 96.7 136.7 98 137.2C100.1 138.2 102.7 138.4 104.9 137.7C107.2 137 109.1 135.3 110.3 133.3C111.2 131.7 111.6 129.9 112.3 128.3C113.4 125.8 115.6 123.7 118.1 123C118.9 117.8 118.9 112.2 118.6 107.2Z" fill="#E5B5A3"/>
<path d="M41 210.502C41 210.502 50.8 162.402 93 162.402C135.2 162.402 140.7 210.502 140.7 210.502H41Z" fill="#BFD6D8"/>
<path d="M84.4004 158.4L83.4004 169.6C83.4004 169.6 83.9004 169.4 92.9004 170.4C101.9 171.4 102.6 163.4 102.6 163.4L101.5 148.5C96.2004 155.8 88.9004 157.8 84.4004 158.4Z" fill="#E5B5A3"/>
<path d="M80.6008 118.202C80.6008 119.702 80.0008 121.002 79.2008 121.002C78.4008 121.002 77.8008 119.802 77.8008 118.202C77.8008 116.702 78.4008 115.402 79.2008 115.402C79.9008 115.402 80.6008 116.702 80.6008 118.202Z" fill="#373C44"/>
<path d="M104.9 121.502C105.673 121.502 106.3 120.249 106.3 118.702C106.3 117.156 105.673 115.902 104.9 115.902C104.127 115.902 103.5 117.156 103.5 118.702C103.5 120.249 104.127 121.502 104.9 121.502Z" fill="#373C44"/>
<path d="M94.4996 120.102C93.8996 120.402 93.3996 120.802 92.8996 121.102C92.3996 121.402 91.8996 121.902 91.7996 122.202C91.7996 122.302 91.8996 122.502 92.0996 122.702C92.2996 122.902 92.4996 123.002 92.7996 123.102C93.2996 123.302 93.8996 123.102 94.4996 122.802C94.0996 123.302 93.4996 123.802 92.6996 123.702C92.2996 123.702 91.9996 123.502 91.6996 123.202C91.3996 123.002 91.0996 122.602 91.0996 122.102C91.1996 121.602 91.4996 121.302 91.6996 121.102C91.9996 120.902 92.2996 120.702 92.5996 120.602C93.1996 120.302 93.7996 120.202 94.4996 120.102Z" fill="#373C44"/>
<path d="M89.0996 129.203C89.6996 129.603 90.3996 129.903 90.9996 130.203C91.5996 130.503 92.2996 130.703 92.9996 130.703C93.6996 130.703 94.2996 130.603 94.9996 130.303C95.5996 130.003 96.1996 129.603 96.7996 129.203C96.5996 129.503 96.3996 129.803 96.0996 130.103C95.7996 130.403 95.5996 130.603 95.1996 130.803C94.5996 131.203 93.6996 131.403 92.8996 131.403C91.3996 131.403 89.9996 130.503 89.0996 129.203Z" fill="#373C44"/>
<path d="M77.8004 128.8C79.402 128.8 80.7004 127.502 80.7004 125.9C80.7004 124.298 79.402 123 77.8004 123C76.1988 123 74.9004 124.298 74.9004 125.9C74.9004 127.502 76.1988 128.8 77.8004 128.8Z" fill="#CE8282"/>
<path d="M105.9 129.503C107.502 129.503 108.8 128.205 108.8 126.603C108.8 125.001 107.502 123.703 105.9 123.703C104.298 123.703 103 125.001 103 126.603C103 128.205 104.298 129.503 105.9 129.503Z" fill="#CE8282"/>
<path d="M100.801 113.203C101.101 112.203 101.801 111.403 102.601 110.803C103.401 110.203 104.401 109.703 105.501 109.603C106.601 109.503 107.701 109.703 108.601 110.203C109.101 110.403 109.401 110.803 109.801 111.103C110.101 111.503 110.401 111.903 110.701 112.303C109.701 112.003 108.901 111.703 108.101 111.603C107.301 111.403 106.501 111.403 105.801 111.503C104.101 111.703 102.601 112.403 100.801 113.203Z" fill="#373C44"/>
<path d="M83.6996 112.403C81.9996 111.103 80.3996 110.603 78.6996 110.703C77.7996 110.703 76.9996 110.903 75.9996 111.103C75.4996 111.203 75.0996 111.303 74.5996 111.403C74.0996 111.503 73.5996 111.603 73.0996 111.703C73.3996 111.303 73.7996 110.903 74.1996 110.503C74.5996 110.203 75.0996 109.903 75.4996 109.603C76.4996 109.103 77.4996 108.703 78.6996 108.703C79.7996 108.703 80.9996 109.003 81.9996 109.603C82.8996 110.303 83.4996 111.303 83.6996 112.403Z" fill="#373C44"/>
<path d="M117.8 111.903C114 110.903 111.2 91.4031 104.9 91.0031C98.6004 90.7031 78.2004 110.503 67.0004 101.503C55.7004 92.5031 58.0004 81.3031 60.1004 80.4031C62.2004 79.5031 63.1004 85.0031 63.1004 85.0031C63.1004 85.0031 62.4004 79.0031 64.9004 78.6031C67.3004 78.2031 67.6004 83.9031 67.6004 83.9031C67.6004 83.9031 66.2004 76.9031 70.2004 76.8031C74.2004 76.7031 72.0004 83.6031 72.0004 83.6031C72.0004 83.6031 98.3004 67.2031 106.3 79.8031C122.9 83.2031 121.5 112.903 117.8 111.903Z" fill="#373C44"/>
<path d="M105.9 80.7017C105.9 80.7017 106.9 75.2017 108.3 75.0017C109.7 74.8017 107.1 80.0017 107.1 80.0017C107.1 80.0017 109.4 77.0017 110.1 77.9017C110.8 78.7017 107.1 81.5017 105.9 80.7017Z" fill="#373C44"/>
<path d="M84.1006 162.401L93.0006 170.401L88.0006 180.201C88.0006 180.201 79.4006 173.401 79.8006 164.301C84.6006 156.301 84.4006 159.001 84.4006 159.001L84.1006 162.401Z" fill="#A9B7B7"/>
<path d="M102.4 162.401L92.9004 170.401L98.5004 180.201C98.5004 180.201 107.1 173.401 106.7 164.301C101.9 156.301 102.1 159.001 102.1 159.001L102.4 162.401Z" fill="#A9B7B7"/>
<path d="M94.0996 180.102C94.0996 180.702 93.5996 181.102 93.0996 181.102C92.5996 181.102 92.0996 180.602 92.0996 180.102C92.0996 179.602 92.5996 179.102 93.0996 179.102C93.5996 179.102 94.0996 179.602 94.0996 180.102Z" fill="white"/>
<path d="M94.0996 197.203C94.0996 197.803 93.5996 198.203 93.0996 198.203C92.5996 198.203 92.0996 197.703 92.0996 197.203C92.0996 196.703 92.5996 196.203 93.0996 196.203C93.5996 196.203 94.0996 196.703 94.0996 197.203Z" fill="white"/>
</g>
<defs>
<clipPath id="clip0">
<rect width="99.6" height="135.5" fill="white" transform="translate(41 75)"/>
</clipPath>
</defs>
</svg>
