<svg width="181" height="217" viewBox="0 0 181 217" fill="none" xmlns="http://www.w3.org/2000/svg">
<ellipse cx="90.5" cy="91" rx="90.5" ry="91" fill="#C4C4C4"/>
<g clip-path="url(#clip0)">
<path d="M71.5994 105.9L62.2994 103.5C62.2994 103.5 56.6994 120.8 64.4994 126.8C72.2994 132.7 71.5994 105.9 71.5994 105.9Z" fill="#685A56"/>
<path d="M41 216.202C41 216.202 50.8 168.102 93 168.102C135.2 168.102 140.7 216.202 140.7 216.202H41Z" fill="#373C44"/>
<path d="M65.359 132.902C69.342 131.261 71.2407 126.702 69.5999 122.719C67.959 118.736 63.4 116.837 59.417 118.478C55.4339 120.119 53.5352 124.678 55.1761 128.661C56.8169 132.644 61.376 134.543 65.359 132.902Z" fill="#CE8282"/>
<path d="M125.909 131.261C128.955 128.215 128.955 123.277 125.909 120.231C122.863 117.185 117.925 117.185 114.879 120.231C111.833 123.277 111.833 128.215 114.879 131.261C117.925 134.308 122.863 134.308 125.909 131.261Z" fill="#CE8282"/>
<path d="M101.5 154.103L100.2 136.703L86.6004 138.603L84.4004 164.003C88.9004 163.503 96.2004 161.403 101.5 154.103Z" fill="#D19582"/>
<path d="M69.3003 107.001C72.7003 110.401 68.8003 118.801 64.5003 118.201C64.2003 122.401 64.4003 123.601 64.9003 127.701C65.8003 135.901 69.7003 143.101 77.2003 147.001C84.7003 151.001 94.8003 152.401 102.8 149.101C109 146.601 113.7 142.001 116.2 136.001C119 129.101 119 120.201 118.6 112.701C117.2 84.9011 94.6003 85.3011 94.6003 85.3011C94.6003 85.3011 77.7003 86.2011 69.3003 107.001Z" fill="#E5B5A3"/>
<path d="M84.4004 164.003L83.4004 175.203C83.4004 175.203 83.8004 180.803 92.8004 181.903C101.8 183.003 102.9 173.503 102.9 173.503L101.4 154.203C96.2004 161.403 88.9004 163.503 84.4004 164.003Z" fill="#E5B5A3"/>
<path d="M79.2008 126.702C79.974 126.702 80.6008 125.448 80.6008 123.902C80.6008 122.355 79.974 121.102 79.2008 121.102C78.4276 121.102 77.8008 122.355 77.8008 123.902C77.8008 125.448 78.4276 126.702 79.2008 126.702Z" fill="#373C44"/>
<path d="M106.3 124.3C106.3 125.8 105.7 127.1 104.9 127.1C104.1 127.1 103.5 125.9 103.5 124.3C103.5 122.8 104.1 121.5 104.9 121.5C105.6 121.6 106.3 122.8 106.3 124.3Z" fill="#373C44"/>
<path d="M91.8004 125.703C91.2004 126.003 90.7004 126.403 90.2004 126.703C89.7004 127.003 89.2004 127.503 89.1004 127.803C89.1004 127.903 89.2004 128.103 89.4004 128.303C89.6004 128.503 89.8004 128.603 90.1004 128.703C90.6004 128.903 91.2004 128.703 91.8004 128.403C91.4004 128.903 90.8004 129.403 90.0004 129.303C89.6004 129.303 89.3004 129.103 89.0004 128.803C88.7004 128.603 88.4004 128.203 88.4004 127.703C88.5004 127.203 88.8004 126.903 89.0004 126.703C89.3004 126.503 89.6004 126.303 89.9004 126.203C90.5004 126.003 91.2004 125.803 91.8004 125.703Z" fill="#373C44"/>
<path d="M88 132.203C88.6 132.603 89.3 132.903 89.9 133.203C90.5 133.503 91.2 133.703 91.9 133.703C92.6 133.703 93.2 133.603 93.9 133.303C94.5 133.003 95.1 132.603 95.7 132.203C95.5 132.503 95.3 132.803 95 133.103C94.7 133.403 94.5 133.603 94.1 133.803C93.5 134.203 92.6 134.403 91.8 134.403C90.2 134.403 88.8 133.503 88 132.203Z" fill="#373C44"/>
<path d="M77.8004 136.101C79.402 136.101 80.7004 134.802 80.7004 133.201C80.7004 131.599 79.402 130.301 77.8004 130.301C76.1988 130.301 74.9004 131.599 74.9004 133.201C74.9004 134.802 76.1988 136.101 77.8004 136.101Z" fill="#CE8282"/>
<path d="M104.9 136.101C106.502 136.101 107.8 134.802 107.8 133.201C107.8 131.599 106.502 130.301 104.9 130.301C103.298 130.301 102 131.599 102 133.201C102 134.802 103.298 136.101 104.9 136.101Z" fill="#CE8282"/>
<path d="M114.7 112.901C113.9 110.701 113.7 108.301 113 106.101C112.3 103.901 111.2 101.601 109.3 100.301C107.3 99.0013 104.8 98.9013 102.5 99.2013C96.3 100.101 90.9 103.901 85 106.001C78.5 108.301 71.1 108.401 64.5 106.301C62.2 105.601 59.9 104.501 58.1 103.001C54.3 99.8013 52.7 94.3013 54 89.6013C54.2 88.7013 54.6 87.9013 55.3 87.3013C56 86.7013 57 86.4013 57.8 86.8013C58.9 87.4013 59 89.0013 59.2 90.3013C59.5 91.9013 60 94.2013 61.1 95.5013C62 94.0013 61.5 91.6013 61.7 90.0013C61.9 88.1013 62.5 86.1013 64.1 84.9013C64.4 84.6013 64.9 84.4013 65.3 84.5013C66.4 84.6013 66.6 86.2013 66.5 87.3013C66.4 89.3013 66.7 91.3013 67.4 93.2013C67.3 89.7013 67.3 86.0013 69.3 83.2013C69.8 82.6013 70.5 81.9013 71.3 82.1013C72.2 82.3013 72.6 83.4013 72.6 84.3013C72.6 85.2013 72.4 86.2013 72.8 87.0013C73.2 88.0013 74.4 88.4013 75.4 88.5013C76.4 88.5013 77.5 88.1013 78.4 87.8013C85.8 85.1013 93.5 83.0013 101.4 82.3013C104.4 82.0013 107.6 82.0013 110.4 83.3013C112.9 84.4013 114.8 86.6013 116.1 88.9013C117.4 91.3013 118.1 93.9013 118.6 96.6013C119.6 101.601 120.1 106.801 119.9 112.001C119.9 113.401 120.3 117.401 118.2 117.301C116.4 117.101 115.1 114.301 114.7 112.901Z" fill="#685A56"/>
<path d="M100.699 118.303C101.199 117.503 101.899 116.803 102.699 116.303C103.499 115.803 104.499 115.403 105.499 115.303C106.499 115.203 107.499 115.403 108.399 115.803C109.299 116.203 109.999 116.903 110.599 117.603C110.199 117.403 109.799 117.203 109.399 117.003C108.999 116.803 108.599 116.603 108.199 116.503C107.399 116.203 106.499 116.203 105.699 116.303C103.899 116.403 102.299 117.303 100.699 118.303Z" fill="#373C44"/>
<path d="M83.6 117.601C82.3 116.101 80.4 115.301 78.6 115.401C77.7 115.401 76.7 115.701 75.8 115.901L74.4 116.401C73.9 116.601 73.5 116.801 73 116.901C73.4 116.601 73.8 116.301 74.2 115.901C74.6 115.601 75.1 115.401 75.5 115.101C76.4 114.701 77.5 114.401 78.5 114.301C79.6 114.301 80.7 114.501 81.6 115.101C82.6 115.801 83.3 116.701 83.6 117.601Z" fill="#373C44"/>
</g>
<defs>
<clipPath id="clip0">
<rect width="99.6" height="134.2" fill="white" transform="translate(41 82)"/>
</clipPath>
</defs>
</svg>
