<svg width="182" height="214" viewBox="0 0 182 214" fill="none" xmlns="http://www.w3.org/2000/svg">
<circle cx="91" cy="91" r="91" fill="#C4C4C4"/>
<g clip-path="url(#clip0)">
<path d="M41 213.799C41 213.799 50.8 165.699 93 165.699C135.2 165.699 140.7 213.799 140.7 213.799H41Z" fill="#E28269"/>
<path d="M82.8008 166.799C82.8008 166.799 73.8008 176.099 81.3008 182.799C88.4008 189.099 92.8008 179.499 92.8008 179.499C92.8008 179.499 92.8008 185.499 99.8008 184.999C106.801 184.499 110.501 175.999 107.701 168.099C98.0008 162.899 82.8008 166.799 82.8008 166.799Z" fill="white"/>
<path d="M62.3996 131.198C66.7074 131.198 70.1996 127.705 70.1996 123.398C70.1996 119.09 66.7074 115.598 62.3996 115.598C58.0918 115.598 54.5996 119.09 54.5996 123.398C54.5996 127.705 58.0918 131.198 62.3996 131.198Z" fill="#CE8282"/>
<path d="M120.4 131.198C124.707 131.198 128.2 127.705 128.2 123.398C128.2 119.09 124.707 115.598 120.4 115.598C116.092 115.598 112.6 119.09 112.6 123.398C112.6 127.705 116.092 131.198 120.4 131.198Z" fill="#CE8282"/>
<path d="M101.5 151.798L100.2 134.398L86.6004 136.298L84.4004 161.698C88.9004 161.098 96.2004 159.098 101.5 151.798Z" fill="#D19582"/>
<path d="M64.5999 115.897C64.2999 120.097 64.4999 121.297 64.9999 125.397C65.8999 133.597 69.7999 140.797 77.2999 144.697C84.7999 148.697 94.8999 150.097 102.9 146.797C109.1 144.297 113.8 139.697 116.3 133.697C119 126.797 119 117.997 118.6 110.497C117.2 82.6973 94.5999 83.0973 94.5999 83.0973C94.5999 83.0973 64.3999 80.7973 64.5999 115.897Z" fill="#E5B5A3"/>
<path d="M84.4004 161.601L83.4004 172.801C83.4004 172.801 83.8004 178.401 92.8004 179.501C101.8 180.601 102.9 171.101 102.9 171.101L101.4 151.801C96.2004 159.101 88.9004 161.101 84.4004 161.601Z" fill="#E5B5A3"/>
<path d="M80.6008 121.499C80.6008 122.999 80.0008 124.299 79.2008 124.299C78.4008 124.299 77.8008 123.099 77.8008 121.499C77.8008 119.999 78.4008 118.699 79.2008 118.699C79.9008 118.699 80.6008 119.999 80.6008 121.499Z" fill="#373C44"/>
<path d="M104.9 124.799C105.673 124.799 106.3 123.546 106.3 121.999C106.3 120.453 105.673 119.199 104.9 119.199C104.127 119.199 103.5 120.453 103.5 121.999C103.5 123.546 104.127 124.799 104.9 124.799Z" fill="#373C44"/>
<path d="M91.8004 123.398C91.2004 123.698 90.7004 124.098 90.2004 124.398C89.7004 124.698 89.2004 125.198 89.1004 125.498C89.1004 125.598 89.2004 125.798 89.4004 125.998C89.6004 126.198 89.8004 126.298 90.1004 126.398C90.6004 126.598 91.2004 126.398 91.8004 126.098C91.4004 126.598 90.8004 127.098 90.0004 126.998C89.6004 126.998 89.3004 126.798 89.0004 126.498C88.7004 126.298 88.4004 125.898 88.4004 125.398C88.5004 124.898 88.8004 124.598 89.0004 124.398C89.3004 124.198 89.6004 123.998 89.9004 123.898C90.5004 123.598 91.2004 123.398 91.8004 123.398Z" fill="#373C44"/>
<path d="M88 129.898C88.6 130.298 89.3 130.598 89.9 130.898C90.5 131.198 91.2 131.398 91.9 131.398C92.6 131.398 93.2 131.298 93.9 130.998C94.5 130.698 95.1 130.298 95.7 129.898C95.5 130.198 95.3 130.498 95 130.798C94.7 131.098 94.5 131.298 94.1 131.498C93.5 131.898 92.6 132.098 91.8 132.098C90.2 131.998 88.8 131.098 88 129.898Z" fill="#373C44"/>
<path d="M76.3004 132.8C77.902 132.8 79.2004 131.502 79.2004 129.9C79.2004 128.298 77.902 127 76.3004 127C74.6988 127 73.4004 128.298 73.4004 129.9C73.4004 131.502 74.6988 132.8 76.3004 132.8Z" fill="#CE8282"/>
<path d="M106.3 133.698C107.902 133.698 109.2 132.4 109.2 130.798C109.2 129.197 107.902 127.898 106.3 127.898C104.699 127.898 103.4 129.197 103.4 130.798C103.4 132.4 104.699 133.698 106.3 133.698Z" fill="#CE8282"/>
<path d="M63.3002 125.098C63.7002 124.598 53.9002 81.6979 92.7002 81.5979C129.6 81.4979 119.5 119.898 119.5 119.898C119.5 119.898 103.6 110.098 101.5 94.4979C101.6 95.2979 100.2 97.0978 99.8002 97.7978C99.1002 98.8979 98.3002 99.8979 97.5002 100.798C94.1002 104.698 90.0002 108.298 85.5002 110.998C83.1002 112.398 80.6002 113.598 78.0002 114.498C75.2002 115.498 72.3002 115.998 69.6002 117.298C66.4002 118.798 64.4002 121.798 63.3002 125.098Z" fill="#373C44"/>
<path d="M101 86.0991C101 86.0991 95.2003 72.3991 108 68.6991C120.7 64.9991 128.4 77.9991 113.2 90.4991C108.7 85.6991 101 86.0991 101 86.0991Z" fill="#373C44"/>
<path d="M92.6992 189.301C93.5276 189.301 94.1992 188.629 94.1992 187.801C94.1992 186.972 93.5276 186.301 92.6992 186.301C91.8708 186.301 91.1992 186.972 91.1992 187.801C91.1992 188.629 91.8708 189.301 92.6992 189.301Z" fill="white"/>
<path d="M92.6992 198.301C93.5276 198.301 94.1992 197.629 94.1992 196.801C94.1992 195.972 93.5276 195.301 92.6992 195.301C91.8708 195.301 91.1992 195.972 91.1992 196.801C91.1992 197.629 91.8708 198.301 92.6992 198.301Z" fill="white"/>
</g>
<defs>
<clipPath id="clip0">
<rect width="99.6" height="145.8" fill="white" transform="translate(41 68)"/>
</clipPath>
</defs>
</svg>
