<svg width="182" height="205" viewBox="0 0 182 205" fill="none" xmlns="http://www.w3.org/2000/svg">
<circle cx="91" cy="91" r="91" fill="#C4C4C4"/>
<g clip-path="url(#clip0)">
<path d="M41 204.202C41 204.202 50.8 156.102 93 156.102C135.2 156.102 140.7 204.202 140.7 204.202H41Z" fill="#C15252"/>
<path d="M61.4996 154.701C61.4996 154.701 99.1996 147.801 119 154.301C124.3 140.601 135.3 74.3009 94.2996 73.4009C50.1996 72.4009 57.4996 144.501 61.4996 154.701Z" fill="#685A56"/>
<path d="M70.0608 114.964C70.7729 110.716 67.9061 106.695 63.6578 105.983C59.4094 105.271 55.3881 108.137 54.6761 112.386C53.964 116.634 56.8307 120.655 61.0791 121.367C65.3275 122.08 69.3487 119.213 70.0608 114.964Z" fill="#CE8282"/>
<path d="M128.139 115.003C128.829 110.751 125.941 106.744 121.689 106.054C117.436 105.364 113.43 108.251 112.74 112.504C112.05 116.756 114.937 120.763 119.19 121.453C123.442 122.143 127.448 119.255 128.139 115.003Z" fill="#CE8282"/>
<path d="M101.5 139.599L100.2 122.199L86.6004 124.099L84.4004 149.499C88.9004 148.999 96.2004 146.899 101.5 139.599Z" fill="#D19582"/>
<path d="M65.5004 96.9988C64.8004 98.7987 64.9004 101.299 64.8004 103.299C64.5004 107.499 64.6004 111.699 65.0004 115.799C65.9004 123.999 69.8004 131.199 77.3004 135.099C84.8004 139.099 94.9004 140.499 102.9 137.199C109.1 134.699 113.8 130.099 116.3 124.099C119.1 117.199 119.1 108.299 118.7 100.799C117.2 72.9988 94.6004 73.3988 94.6004 73.3988C94.6004 73.3988 73.8004 76.1988 65.5004 96.9988Z" fill="#E5B5A3"/>
<path d="M84.4004 149.499L83.4004 160.699C83.4004 160.699 83.8004 166.299 92.8004 167.399C101.9 168.399 103 158.999 103 158.999L101.5 139.699C96.2004 146.899 88.9004 148.999 84.4004 149.499Z" fill="#E5B5A3"/>
<path d="M78.0002 112.3C78.0002 113.8 77.4002 115.1 76.6002 115.1C75.8002 115.1 75.2002 113.9 75.2002 112.3C75.2002 110.8 75.8002 109.5 76.6002 109.5C77.3002 109.5 78.0002 110.8 78.0002 112.3Z" fill="#373C44"/>
<path d="M107.8 113.402C107.8 114.902 107.2 116.202 106.4 116.202C105.6 116.202 105 115.002 105 113.402C105 111.902 105.6 110.602 106.4 110.602C107.2 110.702 107.8 111.902 107.8 113.402Z" fill="#373C44"/>
<path d="M91.8004 113.699C91.2004 113.999 90.7004 114.399 90.2004 114.699C89.7004 114.999 89.2004 115.499 89.1004 115.799C89.1004 115.899 89.2004 116.099 89.4004 116.299C89.6004 116.499 89.8004 116.599 90.1004 116.699C90.6004 116.899 91.2004 116.699 91.8004 116.399C91.4004 116.899 90.8004 117.399 90.0004 117.299C89.6004 117.299 89.3004 117.099 89.0004 116.799C88.7004 116.599 88.4004 116.199 88.4004 115.699C88.5004 115.199 88.8004 114.899 89.0004 114.699C89.3004 114.499 89.6004 114.299 89.9004 114.199C90.5004 113.899 91.2004 113.799 91.8004 113.699Z" fill="#373C44"/>
<path d="M88 120.199C88.6 120.599 89.3 120.899 89.9 121.199C90.5 121.499 91.2 121.699 91.9 121.699C92.6 121.699 93.2 121.599 93.9 121.299C94.5 120.999 95.1 120.599 95.7 120.199C95.5 120.499 95.3 120.799 95 121.099C94.7 121.399 94.5 121.599 94.1 121.799C93.5 122.199 92.6 122.399 91.8 122.399C90.2 122.399 88.8 121.399 88 120.199Z" fill="#373C44"/>
<path d="M62.4004 101.1C62.4004 101.1 92.7004 98.2996 93.2004 81.0996C95.6004 95.5996 108.6 97.2996 122 100.3C122 100.3 117.8 71.0996 91.5004 73.4996C85.9004 73.9996 81.1004 77.1996 76.9004 80.4996C67.5004 87.8996 63.3004 98.8996 62.4004 101.1Z" fill="#685A56"/>
<path d="M95.0998 74.7004C95.0998 74.7004 96.8998 64.6004 94.3998 64.1004C91.8998 63.6004 93.1998 73.5004 93.1998 73.5004C93.1998 73.5004 92.3998 67.3004 88.7998 67.5004C85.0998 67.6004 92.3998 74.5004 95.0998 74.7004Z" fill="#685A56"/>
<path d="M74.9 124.999C76.5016 124.999 77.8 123.701 77.8 122.099C77.8 120.498 76.5016 119.199 74.9 119.199C73.2984 119.199 72 120.498 72 122.099C72 123.701 73.2984 124.999 74.9 124.999Z" fill="#CE8282"/>
<path d="M107.8 124.999C109.402 124.999 110.7 123.701 110.7 122.099C110.7 120.498 109.402 119.199 107.8 119.199C106.199 119.199 104.9 120.498 104.9 122.099C104.9 123.701 106.199 124.999 107.8 124.999Z" fill="#CE8282"/>
<path d="M73.8 124.202C79.7647 124.202 84.6 119.366 84.6 113.402C84.6 107.437 79.7647 102.602 73.8 102.602C67.8353 102.602 63 107.437 63 113.402C63 119.366 67.8353 124.202 73.8 124.202Z" stroke="white" stroke-miterlimit="10"/>
<path d="M108.5 124.202C114.465 124.202 119.3 119.366 119.3 113.402C119.3 107.437 114.465 102.602 108.5 102.602C102.536 102.602 97.7002 107.437 97.7002 113.402C97.7002 119.366 102.536 124.202 108.5 124.202Z" stroke="white" stroke-miterlimit="10"/>
<path d="M84.4004 112.899C84.4004 112.899 92.2004 106.699 97.7004 113.499" stroke="white" stroke-miterlimit="10"/>
<path d="M102.9 106.299C103.4 105.499 104.1 104.799 104.9 104.299C105.7 103.799 106.7 103.399 107.7 103.299C108.7 103.199 109.7 103.399 110.6 103.799C111.5 104.199 112.2 104.899 112.8 105.599C112.4 105.399 112 105.199 111.6 104.999C111.2 104.799 110.8 104.599 110.4 104.499C109.6 104.199 108.7 104.199 107.9 104.299C106 104.399 104.4 105.299 102.9 106.299Z" fill="#685A56"/>
<path d="M79.6 106.199C78.1 104.899 76.3 104.299 74.5 104.199C73.6 104.199 72.7 104.299 71.8 104.499C71.3 104.599 70.9 104.799 70.4 104.899C69.9 105.099 69.5 105.199 69 105.399C69.4 105.099 69.8 104.799 70.2 104.499C70.6 104.299 71.1 103.999 71.5 103.799C72.4 103.399 73.5 103.199 74.5 103.199C75.5 103.199 76.6 103.499 77.5 103.999C78.4 104.599 79.2 105.299 79.6 106.199Z" fill="#685A56"/>
</g>
<defs>
<clipPath id="clip0">
<rect width="99.6" height="140.2" fill="white" transform="translate(41 64)"/>
</clipPath>
</defs>
</svg>
