<svg width="181" height="214" viewBox="0 0 181 214" fill="none" xmlns="http://www.w3.org/2000/svg">
<ellipse cx="90.5" cy="91" rx="90.5" ry="91" fill="#C4C4C4"/>
<path d="M41 213.126C41 213.126 50.7 165.426 92.6 165.426C134.4 165.426 139.9 213.126 139.9 213.126H41Z" fill="#161616"/>
<path d="M62.2004 131.229C66.5082 131.229 70.0004 127.737 70.0004 123.429C70.0004 119.121 66.5082 115.629 62.2004 115.629C57.8926 115.629 54.4004 119.121 54.4004 123.429C54.4004 127.737 57.8926 131.229 62.2004 131.229Z" fill="#CE8282"/>
<path d="M119.8 131.229C124.108 131.229 127.6 127.737 127.6 123.429C127.6 119.121 124.108 115.629 119.8 115.629C115.492 115.629 112 119.121 112 123.429C112 127.737 115.492 131.229 119.8 131.229Z" fill="#CE8282"/>
<path d="M101 151.528L99.6996 134.328L86.2996 136.128L84.0996 161.328C88.4996 160.828 95.6996 158.828 101 151.528Z" fill="#D19582"/>
<path d="M64.3997 116.025C64.0997 120.125 64.2997 121.425 64.7997 125.525C65.6997 133.625 69.5997 140.725 76.9997 144.725C84.3997 148.725 94.4997 150.125 102.4 146.825C108.5 144.325 113.2 139.825 115.6 133.825C118.4 126.925 118.4 118.125 118 110.725C116.6 83.2252 94.1997 83.6252 94.1997 83.6252C94.1997 83.6252 64.2997 81.1252 64.3997 116.025Z" fill="#E5B5A3"/>
<path d="M84.0996 161.429L83.0996 172.529C83.0996 172.529 83.4996 178.029 92.4996 179.129C101.5 180.229 102.5 170.829 102.5 170.829L101 151.629C95.6996 158.829 88.4996 160.829 84.0996 161.429Z" fill="#E5B5A3"/>
<path d="M80.3 121.527C80.3 123.027 79.7 124.327 78.9 124.327C78.1 124.327 77.5 123.127 77.5 121.527C77.5 119.927 78.1 118.727 78.9 118.727C79.7 118.827 80.3 120.027 80.3 121.527Z" fill="#373C44"/>
<path d="M105.8 122.027C105.8 123.527 105.2 124.827 104.4 124.827C103.6 124.827 103 123.627 103 122.027C103 120.527 103.6 119.227 104.4 119.227C105.1 119.227 105.8 120.527 105.8 122.027Z" fill="#373C44"/>
<path d="M91.3996 123.426C90.7996 123.726 90.2996 124.126 89.7996 124.426C89.2996 124.726 88.7996 125.226 88.7996 125.526C88.7996 125.626 88.8996 125.826 89.0996 126.026C89.2996 126.226 89.4996 126.326 89.7996 126.426C90.2996 126.626 90.8996 126.426 91.4996 126.126C91.0996 126.626 90.4996 127.126 89.6996 127.026C89.2996 127.026 88.9996 126.826 88.6996 126.626C88.3996 126.426 88.0996 126.026 88.0996 125.526C88.1996 125.026 88.4996 124.726 88.6996 124.526C88.9996 124.326 89.2996 124.126 89.5996 124.026C90.1996 123.626 90.7996 123.426 91.3996 123.426Z" fill="#373C44"/>
<path d="M87.5996 129.828C88.1996 130.228 88.8996 130.528 89.4996 130.828C90.0996 131.128 90.7996 131.228 91.4996 131.328C92.1996 131.328 92.7996 131.228 93.3996 130.928C93.9996 130.628 94.5996 130.228 95.1996 129.828C94.9996 130.128 94.7996 130.428 94.4996 130.728C94.1996 131.028 93.9996 131.228 93.5996 131.428C92.9996 131.828 92.0996 132.028 91.3996 132.028C89.7996 132.028 88.3996 131.028 87.5996 129.828Z" fill="#373C44"/>
<path d="M79.3996 130.029C79.3996 131.629 78.0996 132.929 76.4996 132.929C74.8996 132.929 73.5996 131.629 73.5996 130.029C73.5996 128.429 74.8996 127.129 76.4996 127.129C78.0996 127.129 79.3996 128.429 79.3996 130.029Z" fill="#CE8282"/>
<path d="M108.7 129.427C108.7 131.027 107.4 132.327 105.8 132.327C104.2 132.327 102.9 131.027 102.9 129.427C102.9 127.827 104.2 126.527 105.8 126.527C107.4 126.527 108.7 127.827 108.7 129.427Z" fill="#CE8282"/>
<path d="M101.4 114.526C102 113.126 103.6 112.126 105.3 112.226C106.1 112.226 106.9 112.526 107.6 112.926C107.9 113.126 108.2 113.426 108.5 113.626C108.8 113.926 109 114.226 109.2 114.526C108.8 114.326 108.5 114.226 108.2 114.026C107.9 113.926 107.6 113.726 107.2 113.626C106.6 113.326 105.9 113.226 105.3 113.226C104.6 113.226 104 113.326 103.4 113.526C102.6 113.726 102 114.026 101.4 114.526Z" fill="#373C44"/>
<path d="M73.7002 114.526C74.3002 113.126 75.9002 112.126 77.6002 112.226C78.4002 112.226 79.2002 112.526 79.9002 112.926C80.2002 113.126 80.5002 113.426 80.8002 113.626C81.1002 113.926 81.3002 114.226 81.5002 114.526C81.1002 114.326 80.8002 114.226 80.5002 114.026C80.2002 113.926 79.9002 113.726 79.5002 113.626C78.9002 113.326 78.2002 113.226 77.6002 113.226C76.9002 113.226 76.3002 113.326 75.7002 113.526C75.0002 113.726 74.3002 114.026 73.7002 114.526Z" fill="#373C44"/>
<path d="M64.4004 116.026C64.4004 116.326 68.1004 99.5261 72.9004 97.1261C70.7004 101.226 70.0004 101.826 70.0004 101.826C70.0004 101.826 77.5004 100.926 80.3004 95.8261C81.1004 98.7261 78.9004 101.026 78.9004 101.026C78.9004 101.026 92.4004 107.926 101.1 98.8261C102.6 101.626 101.1 103.926 101.1 103.926C101.1 103.926 109.4 103.926 111.1 98.5261C116.8 107.226 118.2 115.626 118.2 115.626C118.2 115.626 121.6 82.8261 92.8004 83.4261C63.3004 84.0261 64.8004 110.726 64.4004 116.026Z" fill="#373C44"/>
<path d="M95.1997 84.127C95.1997 84.127 93.5997 78.527 95.5997 78.027C97.5997 77.527 95.9997 84.127 95.9997 84.127C95.9997 84.127 97.3997 78.427 98.6997 79.927C100.1 81.427 97.8997 86.227 95.1997 84.127Z" fill="#373C44"/>
</svg>
