<svg width="182" height="209" viewBox="0 0 182 209" fill="none" xmlns="http://www.w3.org/2000/svg">
<circle cx="91" cy="91" r="91" fill="#C4C4C4"/>
<path d="M120.1 131.468C122.6 135.768 126.2 139.468 129.4 143.268C132.6 147.168 135.6 151.368 136.7 156.268C138.6 164.568 134.2 173.868 126.6 177.568C123 179.368 119 179.968 115 180.468C100.3 182.368 85.2 183.468 70.8 180.168C66.9 179.268 63 178.068 59.8 175.668C56.6 173.268 54.1 169.668 54 165.668C53.8 159.568 58.8 154.768 61.4 149.268C64.1 143.468 64.2 136.868 64 130.468C63.9 127.268 63.8 123.868 65 120.868C66.6 116.968 70.3 114.268 74.1 112.268C82.4 107.868 91.8 105.768 101.1 106.268C106.5 106.568 115.2 108.968 116.8 115.168C117.3 117.168 116.8 119.468 116.9 121.468C117.2 125.168 118.4 128.468 120.1 131.468Z" fill="#685A56"/>
<path d="M41 208.37C41 208.37 50.8 160.27 93 160.27C135.2 160.27 140.7 208.37 140.7 208.37H41Z" fill="#676D82"/>
<path d="M62.3996 125.768C66.7074 125.768 70.1996 122.276 70.1996 117.968C70.1996 113.66 66.7074 110.168 62.3996 110.168C58.0918 110.168 54.5996 113.66 54.5996 117.968C54.5996 122.276 58.0918 125.768 62.3996 125.768Z" fill="#CE8282"/>
<path d="M120.4 125.768C124.707 125.768 128.2 122.276 128.2 117.968C128.2 113.66 124.707 110.168 120.4 110.168C116.092 110.168 112.6 113.66 112.6 117.968C112.6 122.276 116.092 125.768 120.4 125.768Z" fill="#CE8282"/>
<path d="M101.5 146.369L100.2 128.969L86.6004 130.869L84.4004 156.269C88.9004 155.669 96.2004 153.569 101.5 146.369Z" fill="#D19582"/>
<path d="M64.5999 110.468C64.2999 114.668 64.4999 115.868 64.9999 119.968C65.8999 128.168 69.7999 135.368 77.2999 139.268C84.7999 143.268 94.8999 144.668 102.9 141.368C109 138.968 113.7 134.468 116.2 128.368C119 121.468 119 112.568 118.6 105.068C117.2 77.2676 94.5999 77.6676 94.5999 77.6676C94.5999 77.6676 64.3999 75.3676 64.5999 110.468Z" fill="#E5B5A3"/>
<path d="M84.4004 156.167L83.4004 167.367C83.4004 167.367 83.8004 172.967 92.8004 174.067C101.8 175.167 103 165.667 103 165.667L101.5 146.367C96.2004 153.567 88.9004 155.667 84.4004 156.167Z" fill="#E5B5A3"/>
<path d="M79.1998 118.87C79.973 118.87 80.5998 117.616 80.5998 116.07C80.5998 114.523 79.973 113.27 79.1998 113.27C78.4266 113.27 77.7998 114.523 77.7998 116.07C77.7998 117.616 78.4266 118.87 79.1998 118.87Z" fill="#373C44"/>
<path d="M104.9 119.37C105.673 119.37 106.3 118.116 106.3 116.57C106.3 115.023 105.673 113.77 104.9 113.77C104.127 113.77 103.5 115.023 103.5 116.57C103.5 118.116 104.127 119.37 104.9 119.37Z" fill="#373C44"/>
<path d="M91.8004 117.969C91.2004 118.269 90.7004 118.669 90.2004 118.969C89.7004 119.269 89.2004 119.769 89.1004 120.069C89.1004 120.169 89.2004 120.369 89.4004 120.569C89.6004 120.769 89.8004 120.869 90.1004 120.969C90.6004 121.169 91.2004 120.969 91.8004 120.669C91.4004 121.169 90.8004 121.669 90.0004 121.569C89.6004 121.569 89.3004 121.369 89.0004 121.069C88.7004 120.869 88.4004 120.469 88.4004 119.969C88.5004 119.469 88.8004 119.169 89.0004 118.969C89.3004 118.769 89.6004 118.569 89.9004 118.469C90.5004 118.169 91.2004 117.969 91.8004 117.969Z" fill="#373C44"/>
<path d="M88 125.367C88.6 125.767 89.3 126.067 89.9 126.367C90.5 126.667 91.2 126.867 91.9 126.867C92.6 126.867 93.2 126.767 93.9 126.467C94.5 126.167 95.1 125.767 95.7 125.367C95.5 125.667 95.3 125.967 95 126.267C94.7 126.567 94.5 126.767 94.1 126.967C93.5 127.367 92.6 127.567 91.8 127.567C90.2 127.567 88.8 126.567 88 125.367Z" fill="#373C44"/>
<path d="M76.3004 128.269C77.902 128.269 79.2004 126.97 79.2004 125.369C79.2004 123.767 77.902 122.469 76.3004 122.469C74.6988 122.469 73.4004 123.767 73.4004 125.369C73.4004 126.97 74.6988 128.269 76.3004 128.269Z" fill="#CE8282"/>
<path d="M106.3 128.667C107.902 128.667 109.2 127.369 109.2 125.767C109.2 124.166 107.902 122.867 106.3 122.867C104.699 122.867 103.4 124.166 103.4 125.767C103.4 127.369 104.699 128.667 106.3 128.667Z" fill="#CE8282"/>
<path d="M101.8 110.17C102.4 108.77 104 107.77 105.7 107.87C106.5 107.87 107.3 108.17 108 108.57C108.3 108.77 108.6 109.07 108.9 109.27C109.2 109.57 109.4 109.87 109.6 110.17C109.2 109.97 108.9 109.87 108.6 109.67C108.3 109.57 108 109.37 107.6 109.27C107 108.97 106.3 108.87 105.7 108.87C105 108.87 104.4 108.97 103.8 109.17C103.1 109.37 102.4 109.77 101.8 110.17Z" fill="#685A56"/>
<path d="M74.0996 110.17C74.6996 108.77 76.2996 107.77 77.9996 107.87C78.7996 107.87 79.5996 108.17 80.2996 108.57C80.5996 108.77 80.8996 109.07 81.1996 109.27C81.4996 109.57 81.6996 109.87 81.8996 110.17C81.4996 109.97 81.1996 109.87 80.8996 109.67C80.5996 109.57 80.2996 109.37 79.8996 109.27C79.2996 108.97 78.5996 108.87 77.9996 108.87C77.2996 108.87 76.6996 108.97 76.0996 109.17C75.3996 109.37 74.7996 109.77 74.0996 110.17Z" fill="#685A56"/>
<path d="M64.4004 110.469C64.4004 110.469 88.3004 103.869 91.6004 89.3685C97.0004 101.169 109.4 109.169 118.8 110.369C118.8 110.369 122 76.6685 93.0004 77.7685C64.0004 78.8685 64.7004 103.569 64.4004 110.469Z" fill="#685A56"/>
<path d="M90.2996 79.4682C90.2996 79.4682 86.6996 73.0682 88.1996 72.1682C89.6996 71.1682 90.9996 77.7682 90.9996 77.7682C90.9996 77.7682 91.1996 71.2682 93.2996 72.0682C95.2996 72.7682 92.9996 79.6682 90.2996 79.4682Z" fill="#685A56"/>
<path d="M66.6004 200.767C66.6004 201.967 65.6004 202.867 64.5004 202.867C63.3004 202.867 62.4004 201.867 62.4004 200.767C62.4004 199.567 63.4004 198.667 64.5004 198.667C65.6004 198.567 66.6004 199.567 66.6004 200.767Z" fill="white"/>
<path d="M67.5001 173.669C68.6001 174.169 69.0001 175.469 68.5001 176.469C68.0001 177.569 66.7001 177.969 65.7001 177.469C64.6001 176.969 64.2001 175.669 64.7001 174.669C65.2001 173.669 66.4001 173.169 67.5001 173.669Z" fill="white"/>
<path d="M108.7 198.766C109.8 199.266 110.2 200.566 109.7 201.566C109.2 202.666 107.9 203.066 106.9 202.566C105.8 202.066 105.4 200.766 105.9 199.766C106.3 198.766 107.6 198.266 108.7 198.766Z" fill="white"/>
<path d="M91.7003 185.87C92.8003 186.37 93.2003 187.67 92.7003 188.67C92.2003 189.77 90.9003 190.17 89.9003 189.67C88.8003 189.17 88.4003 187.87 88.9003 186.87C89.4003 185.77 90.7003 185.27 91.7003 185.87Z" fill="white"/>
<path d="M110.9 169.068C112 169.568 112.4 170.868 111.9 171.868C111.4 172.968 110.1 173.368 109.1 172.868C108 172.368 107.6 171.068 108.1 170.068C108.6 168.968 109.8 168.568 110.9 169.068Z" fill="white"/>
<path d="M127.3 188.068C128.4 188.568 128.8 189.868 128.3 190.868C127.8 191.968 126.5 192.368 125.5 191.868C124.4 191.368 124 190.068 124.5 189.068C124.9 187.968 126.2 187.568 127.3 188.068Z" fill="white"/>
</svg>
